<!DOCTYPE svg PUBLIC "-//W3C//DTD SVG 1.1//EN" "http://www.w3.org/Graphics/SVG/1.1/DTD/svg11.dtd">
<!-- Uploaded to: SVG Repo, www.svgrepo.com, Transformed by: SVG Repo Mixer Tools -->
<svg fill="#ffffff" version="1.1" id="Layer_1" xmlns:x="&amp;ns_extend;" xmlns:i="&amp;ns_ai;" xmlns:graph="&amp;ns_graphs;" xmlns="http://www.w3.org/2000/svg" xmlns:xlink="http://www.w3.org/1999/xlink" width="800px" height="800px" viewBox="0 0 24 24" enable-background="new 0 0 24 24" xml:space="preserve" stroke="#ffffff">
<g id="SVGRepo_bgCarrier" stroke-width="0"/>
<g id="SVGRepo_tracerCarrier" stroke-linecap="round" stroke-linejoin="round"/>
<g id="SVGRepo_iconCarrier"> <metadata> <sfw> <slices> </slices> <slicesourcebounds width="505" height="984" bottomleftorigin="true" x="0" y="-552"> </slicesourcebounds> </sfw> </metadata> <g> <g> <g> <path d="M20,24H4c-0.6,0-1-0.4-1-1V1c0-0.6,0.4-1,1-1h16c0.6,0,1,0.4,1,1v22C21,23.6,20.6,24,20,24z M5,22h14V2H5V22z"/> </g> </g> <g> <g> <path d="M16,7H8C7.4,7,7,6.6,7,6s0.4-1,1-1h8c0.6,0,1,0.4,1,1S16.6,7,16,7z"/> </g> </g> <g> <g> <path d="M12,11H8c-0.6,0-1-0.4-1-1s0.4-1,1-1h4c0.6,0,1,0.4,1,1S12.6,11,12,11z"/> </g> </g> <g> <g> <path d="M12,15H8c-0.6,0-1-0.4-1-1s0.4-1,1-1h4c0.6,0,1,0.4,1,1S12.6,15,12,15z"/> </g> </g> <g> <g> <path d="M16,11h-1c-0.6,0-1-0.4-1-1s0.4-1,1-1h1c0.6,0,1,0.4,1,1S16.6,11,16,11z"/> </g> </g> <g> <g> <path d="M16,15h-1c-0.6,0-1-0.4-1-1s0.4-1,1-1h1c0.6,0,1,0.4,1,1S16.6,15,16,15z"/> </g> </g> <g> <g> <path d="M14,19h-4c-0.6,0-1-0.4-1-1s0.4-1,1-1h4c0.6,0,1,0.4,1,1S14.6,19,14,19z"/> </g> </g> </g> </g>
</svg>